<?xml version="1.0" encoding="UTF-8" standalone="no"?>
<svg width="309px" height="145px" viewBox="0 0 309 145" version="1.1" xmlns="http://www.w3.org/2000/svg" xmlns:xlink="http://www.w3.org/1999/xlink" xmlns:sketch="http://www.bohemiancoding.com/sketch/ns">
    <title>Beta Buddy</title>
    <desc>Created with Sketch.</desc>
    <defs></defs>
    <g id="Page-1" stroke="none" stroke-width="1" fill="none" fill-rule="evenodd" sketch:type="MSPage">
        <g id="betabuddy_logo_full" sketch:type="MSLayerGroup" transform="translate(1.000000, 0.000000)" fill="#ffffff">
            <path d="M175.466955,92 C175.429632,84.4747781 174.172068,76.3955466 169.880961,71.1810358 C161.814745,59.534483 167.668173,46.2435347 197.295449,43.1986362 L202.426657,20.6161221 C202.670754,19.5418475 201.972985,18.6019416 200.874645,18.5172843 L163.808733,15.6603364 C162.707484,15.5754548 161.527839,14.6600215 161.175801,13.6212016 L157.232352,1.98456889 C156.523375,-0.107534988 154.93731,-0.328696763 153.690346,1.48976063 L138.537984,23.5865661 C138.537984,23.5865661 119.028173,45.5854865 101.815302,91.4793543 C104.031744,90.5256562 106.457555,90 109,90 C116.032682,90 122.172949,94.0219863 125.458138,100 L127,100 L127,80.5 L146.018555,80.5 C152.104523,80.5 156.869123,81.8159968 160.3125,84.4480299 C162.745957,86.3081051 164.319531,88.8254146 165.03324,92 L175.466955,92 L175.466955,92 Z" id="Silouette-(w-cutout)" sketch:type="MSShapeGroup"></path>
            <path d="M-0.375,131 L-0.375,85.5 L14.46875,85.5 C19.2187738,85.5 22.9374866,86.5260314 25.625,88.578125 C28.3125134,90.6302186 29.65625,93.7083128 29.65625,97.8125 C29.65625,99.8333434 29.0104231,101.640617 27.71875,103.234375 C26.4270769,104.828133 24.7291772,106.010413 22.625,106.78125 C25.3750138,107.364586 27.5364505,108.708323 29.109375,110.8125 C30.6822995,112.916677 31.46875,115.364569 31.46875,118.15625 C31.46875,122.322937 30.1198052,125.505197 27.421875,127.703125 C24.7239448,129.901053 21.0625231,131 16.4375,131 L-0.375,131 Z M5.78125,109.65625 L5.78125,126.1875 L16.4375,126.1875 C19.2291806,126.1875 21.4062422,125.494799 22.96875,124.109375 C24.5312578,122.723951 25.3125,120.760429 25.3125,118.21875 C25.3125,115.55207 24.6614648,113.458341 23.359375,111.9375 C22.0572852,110.416659 20.0520969,109.65625 17.34375,109.65625 L5.78125,109.65625 Z M5.78125,104.84375 L15.75,104.84375 C18.0416781,104.84375 19.9062428,104.213548 21.34375,102.953125 C22.7812572,101.692702 23.5,99.9375113 23.5,97.6875 C23.5,95.2291544 22.7239661,93.3906311 21.171875,92.171875 C19.6197839,90.9531189 17.3854312,90.34375 14.46875,90.34375 L5.78125,90.34375 L5.78125,104.84375 Z M53.40625,131.65625 C48.6978931,131.65625 44.9531389,130.088557 42.171875,126.953125 C39.3906111,123.817693 38,119.750025 38,114.75 L38,113.375 C38,108.562476 39.4322773,104.557308 42.296875,101.359375 C45.1614727,98.1614423 48.5520638,96.5625 52.46875,96.5625 C57.0312728,96.5625 60.479155,97.9374863 62.8125,100.6875 C65.145845,103.437514 66.3125,107.104144 66.3125,111.6875 L66.3125,115.53125 L44.375,115.53125 L44.28125,115.6875 C44.3437503,118.937516 45.1666587,121.609365 46.75,123.703125 C48.3333413,125.796885 50.5520691,126.84375 53.40625,126.84375 C55.4895937,126.84375 57.3177005,126.546878 58.890625,125.953125 C60.4635495,125.359372 61.8229109,124.541672 62.96875,123.5 L65.375,127.5 C64.1666606,128.687506 62.5729266,129.677079 60.59375,130.46875 C58.6145734,131.260421 56.2187641,131.65625 53.40625,131.65625 Z M52.46875,101.40625 C50.4062397,101.40625 48.6458406,102.276033 47.1875,104.015625 C45.7291594,105.755217 44.833335,107.937487 44.5,110.5625 L44.5625,110.71875 L60.15625,110.71875 L60.15625,109.90625 C60.15625,107.489571 59.5104231,105.468758 58.21875,103.84375 C56.9270769,102.218742 55.0104294,101.40625 52.46875,101.40625 Z M81.34375,89.03125 L81.34375,97.1875 L87.75,97.1875 L87.75,101.75 L81.34375,101.75 L81.34375,122.28125 C81.34375,123.864591 81.6718717,124.979163 82.328125,125.625 C82.9843783,126.270837 83.8541613,126.59375 84.9375,126.59375 C85.2916684,126.59375 85.6822895,126.552084 86.109375,126.46875 C86.5364605,126.385416 86.916665,126.281251 87.25,126.15625 L88.0625,130.375 C87.6041644,130.750002 86.9322961,131.05729 86.046875,131.296875 C85.1614539,131.53646 84.2708378,131.65625 83.375,131.65625 C80.8749875,131.65625 78.8854241,130.901049 77.40625,129.390625 C75.9270759,127.880201 75.1875,125.510433 75.1875,122.28125 L75.1875,101.75 L69.8125,101.75 L69.8125,97.1875 L75.1875,97.1875 L75.1875,89.03125 L81.34375,89.03125 Z M116.125,131 C115.916666,129.979162 115.755209,129.078129 115.640625,128.296875 C115.526041,127.515621 115.458333,126.729171 115.4375,125.9375 C114.291661,127.562508 112.796884,128.92187 110.953125,130.015625 C109.109366,131.10938 107.125011,131.65625 105,131.65625 C101.479149,131.65625 98.7968842,130.755217 96.953125,128.953125 C95.1093658,127.151033 94.1875,124.666683 94.1875,121.5 C94.1875,118.270817 95.4947786,115.744801 98.109375,113.921875 C100.723971,112.098949 104.270811,111.1875 108.75,111.1875 L115.4375,111.1875 L115.4375,107.84375 C115.4375,105.864573 114.833339,104.296881 113.625,103.140625 C112.416661,101.984369 110.708344,101.40625 108.5,101.40625 C106.520823,101.40625 104.911465,101.911453 103.671875,102.921875 C102.432285,103.932297 101.8125,105.145826 101.8125,106.5625 L95.9375,106.5625 L95.875,106.375 C95.7499994,103.916654 96.9114461,101.666677 99.359375,99.625 C101.807304,97.5833231 104.968731,96.5625 108.84375,96.5625 C112.677102,96.5625 115.760405,97.5364486 118.09375,99.484375 C120.427095,101.432301 121.59375,104.239565 121.59375,107.90625 L121.59375,124.1875 C121.59375,125.395839 121.656249,126.562494 121.78125,127.6875 C121.906251,128.812506 122.135415,129.916661 122.46875,131 L116.125,131 Z M105.90625,126.5 C108.135428,126.5 110.145824,125.927089 111.9375,124.78125 C113.729176,123.635411 114.895831,122.322924 115.4375,120.84375 L115.4375,115.34375 L108.53125,115.34375 C106.052071,115.34375 104.067716,115.968744 102.578125,117.21875 C101.088534,118.468756 100.34375,119.937492 100.34375,121.625 C100.34375,123.125008 100.812495,124.312496 101.75,125.1875 C102.687505,126.062504 104.072907,126.5 105.90625,126.5 Z M131.6875,131 L131.6875,85.5 L146.53125,85.5 C151.281274,85.5 154.999987,86.5260314 157.6875,88.578125 C160.375013,90.6302186 161.71875,93.7083128 161.71875,97.8125 C161.71875,99.8333434 161.072923,101.640617 159.78125,103.234375 C158.489577,104.828133 156.791677,106.010413 154.6875,106.78125 C157.437514,107.364586 159.59895,108.708323 161.171875,110.8125 C162.7448,112.916677 163.53125,115.364569 163.53125,118.15625 C163.53125,122.322937 162.182305,125.505197 159.484375,127.703125 C156.786445,129.901053 153.125023,131 148.5,131 L131.6875,131 Z M137.84375,109.65625 L137.84375,126.1875 L148.5,126.1875 C151.291681,126.1875 153.468742,125.494799 155.03125,124.109375 C156.593758,122.723951 157.375,120.760429 157.375,118.21875 C157.375,115.55207 156.723965,113.458341 155.421875,111.9375 C154.119785,110.416659 152.114597,109.65625 149.40625,109.65625 L137.84375,109.65625 Z M137.84375,104.84375 L147.8125,104.84375 C150.104178,104.84375 151.968743,104.213548 153.40625,102.953125 C154.843757,101.692702 155.5625,99.9375113 155.5625,97.6875 C155.5625,95.2291544 154.786466,93.3906311 153.234375,92.171875 C151.682284,90.9531189 149.447931,90.34375 146.53125,90.34375 L137.84375,90.34375 L137.84375,104.84375 Z M192.90625,126 C191.843745,127.812509 190.479175,129.208328 188.8125,130.1875 C187.145825,131.166672 185.218761,131.65625 183.03125,131.65625 C179.343732,131.65625 176.46876,130.479178 174.40625,128.125 C172.34374,125.770822 171.3125,122.104192 171.3125,117.125 L171.3125,97.1875 L177.46875,97.1875 L177.46875,117.1875 C177.46875,120.791685 177.999995,123.270827 179.0625,124.625 C180.125005,125.979173 181.781239,126.65625 184.03125,126.65625 C186.218761,126.65625 188.026035,126.213546 189.453125,125.328125 C190.880215,124.442704 191.95833,123.187508 192.6875,121.5625 L192.6875,97.1875 L198.84375,97.1875 L198.84375,131 L193.3125,131 L192.90625,126 Z M206.40625,114.71875 C206.40625,109.281223 207.567697,104.89585 209.890625,101.5625 C212.213553,98.22915 215.468729,96.5625 219.65625,96.5625 C221.635427,96.5625 223.390617,96.9270797 224.921875,97.65625 C226.453133,98.3854203 227.760411,99.4479097 228.84375,100.84375 L228.84375,82.25 L235,82.25 L235,131 L229.96875,131 L229.25,126.84375 C228.145828,128.427091 226.791675,129.624996 225.1875,130.4375 C223.583325,131.250004 221.718761,131.65625 219.59375,131.65625 C215.468729,131.65625 212.239595,130.161473 209.90625,127.171875 C207.572905,124.182277 206.40625,120.250024 206.40625,115.375 L206.40625,114.71875 Z M212.5625,115.375 C212.5625,118.791684 213.26041,121.526031 214.65625,123.578125 C216.05209,125.630219 218.218735,126.65625 221.15625,126.65625 C222.989592,126.65625 224.531244,126.239587 225.78125,125.40625 C227.031256,124.572913 228.052079,123.406258 228.84375,121.90625 L228.84375,106.125 C228.052079,104.72916 227.026048,103.619796 225.765625,102.796875 C224.505202,101.973954 222.989592,101.5625 221.21875,101.5625 C218.260402,101.5625 216.078132,102.781238 214.671875,105.21875 C213.265618,107.656262 212.5625,110.822897 212.5625,114.71875 L212.5625,115.375 Z M242.78125,114.71875 C242.78125,109.281223 243.942697,104.89585 246.265625,101.5625 C248.588553,98.22915 251.843729,96.5625 256.03125,96.5625 C258.010427,96.5625 259.765617,96.9270797 261.296875,97.65625 C262.828133,98.3854203 264.135411,99.4479097 265.21875,100.84375 L265.21875,82.25 L271.375,82.25 L271.375,131 L266.34375,131 L265.625,126.84375 C264.520828,128.427091 263.166675,129.624996 261.5625,130.4375 C259.958325,131.250004 258.093761,131.65625 255.96875,131.65625 C251.843729,131.65625 248.614595,130.161473 246.28125,127.171875 C243.947905,124.182277 242.78125,120.250024 242.78125,115.375 L242.78125,114.71875 Z M248.9375,115.375 C248.9375,118.791684 249.63541,121.526031 251.03125,123.578125 C252.42709,125.630219 254.593735,126.65625 257.53125,126.65625 C259.364593,126.65625 260.906244,126.239587 262.15625,125.40625 C263.406256,124.572913 264.427079,123.406258 265.21875,121.90625 L265.21875,106.125 C264.427079,104.72916 263.401048,103.619796 262.140625,102.796875 C260.880202,101.973954 259.364592,101.5625 257.59375,101.5625 C254.635402,101.5625 252.453132,102.781238 251.046875,105.21875 C249.640618,107.656262 248.9375,110.822897 248.9375,114.71875 L248.9375,115.375 Z M290.90625,118.46875 L292,122.71875 L292.1875,122.71875 L300.5,97.1875 L307.34375,97.1875 L293.125,136.1875 C292.270829,138.458345 291.046883,140.437492 289.453125,142.125 C287.859367,143.812508 285.708347,144.65625 283,144.65625 C282.499998,144.65625 281.864587,144.598959 281.09375,144.484375 C280.322913,144.369791 279.729169,144.260417 279.3125,144.15625 L279.9375,139.3125 C279.812499,139.291667 280.182287,139.3125 281.046875,139.375 C281.911463,139.4375 282.458332,139.46875 282.6875,139.46875 C284.000007,139.46875 285.072912,138.885423 285.90625,137.71875 C286.739587,136.552077 287.437497,135.260424 288,133.84375 L289.46875,130.3125 L276.90625,97.1875 L283.78125,97.1875 L290.90625,118.46875 Z" id="BetaBuddy" sketch:type="MSShapeGroup"></path>
        </g>
    </g>
</svg>